<?xml version="1.0" standalone="no"?>
<!DOCTYPE svg PUBLIC "-//W3C//DTD SVG 20010904//EN"
 "http://www.w3.org/TR/2001/REC-SVG-20010904/DTD/svg10.dtd">
<svg version="1.0" xmlns="http://www.w3.org/2000/svg"
 width="500.000000pt" height="500.000000pt" viewBox="0 0 500.000000 500.000000"
 preserveAspectRatio="xMidYMid meet">

<g transform="translate(0.000000,500.000000) scale(0.100000,-0.100000)"
fill="#000000" stroke="none">
<path d="M1705 4243 c-375 -11 -829 -42 -1007 -68 -333 -50 -524 -209 -597
-496 -80 -313 -117 -949 -91 -1534 25 -536 66 -795 157 -974 57 -112 135 -189
253 -250 138 -70 289 -96 736 -126 711 -47 2087 -44 2769 5 379 28 526 55 655
121 293 151 373 404 411 1291 9 211 9 343 0 560 -30 710 -93 1031 -236 1187
-92 100 -230 175 -381 205 -154 31 -482 57 -946 76 -213 9 -1459 11 -1723 3z
m387 -1042 c46 -27 109 -62 140 -77 31 -16 99 -54 150 -85 51 -31 145 -86 208
-123 63 -37 149 -88 190 -113 41 -25 125 -71 185 -103 97 -50 253 -143 309
-183 18 -12 14 -16 -50 -52 -38 -21 -76 -44 -84 -51 -22 -18 -185 -111 -210
-119 -24 -8 -175 -94 -235 -134 -63 -43 -387 -232 -462 -271 -64 -33 -126 -68
-200 -112 l-33 -20 0 746 c0 410 2 746 5 746 2 0 42 -22 87 -49z"/>
</g>
</svg>
